<?xml version="1.0" encoding="UTF-8" standalone="no"?>
<!-- Created with Inkscape (http://www.inkscape.org/) -->

<svg
   xmlns:dc="http://purl.org/dc/elements/1.1/"
   xmlns:cc="http://creativecommons.org/ns#"
   xmlns:rdf="http://www.w3.org/1999/02/22-rdf-syntax-ns#"
   xmlns:svg="http://www.w3.org/2000/svg"
   xmlns="http://www.w3.org/2000/svg"
   version="1.1"
   width="25"
   height="25"
   viewBox="0 0 25 25"
   id="Layer_1"
   xml:space="preserve"><metadata
     id="metadata9"><rdf:RDF><cc:Work
         rdf:about=""><dc:format>image/svg+xml</dc:format><dc:type
           rdf:resource="http://purl.org/dc/dcmitype/StillImage" /><dc:title></dc:title></cc:Work></rdf:RDF></metadata><defs
     id="defs7" /><g
     transform="translate(0,1)"
     id="layer4"><path
       d="m 11.452716,18.258969 6.869034,5.367515 c 0.112425,0.08593 0.181148,0.129492 0.247157,0.130043 0.188027,0.0016 0.241927,-0.124966 0.238427,-0.335966 l -0.08332,-5.023 c -0.0059,-0.355 0.222466,-0.635058 0.53751,-0.632433 l 2.465307,0.01855 c 2.219307,0.0185 2.982268,-1.068993 2.96724,-1.974993 -0.01503,-0.906 -0.215637,-12.9999994 -0.232225,-13.9999994 -0.01659,-1.00000005 -0.781278,-2.00623518 -3.047592,-2.02512378 L 3.4147663,-0.36645678 c -2.1873031,-0.01823 -2.97334046,0.9440847 -2.95623876,1.97508478 0.017102,1.031 0.2161518,13.030999 0.2322251,13.999999 0.016073,0.969 0.86128966,2.006902 3.03358966,2.025007 l 6.00083,0.05001 c 0,0 1.2557547,0.04546 1.7275437,0.575321 z"
       id="path3"
       style="fill:#ffffff;fill-opacity:1;fill-rule:evenodd;stroke:#000000;stroke-width:0.40000001;stroke-linecap:square;stroke-linejoin:miter;stroke-miterlimit:4;stroke-opacity:1;stroke-dasharray:none;stroke-dashoffset:0;marker-start:none" /></g><g
     transform="translate(0,1)"
     id="layer1"><path
       d="m 7.6271186,10.271187 a 2.0338984,2.0338984 0 1 1 -4.0677967,0 2.0338984,2.0338984 0 1 1 4.0677967,0 z"
       transform="matrix(1.0623852,-0.11196096,0.11196096,1.0623852,12.433299,-0.21793722)"
       id="path3935-7-4"
       style="fill:#000000;fill-opacity:1;stroke:#000000;stroke-width:0.40000001;stroke-linecap:square;stroke-linejoin:miter;stroke-miterlimit:4;stroke-opacity:1;stroke-dasharray:none;stroke-dashoffset:0" /><path
       d="m 7.6271186,10.271187 a 2.0338984,2.0338984 0 1 1 -4.0677967,0 2.0338984,2.0338984 0 1 1 4.0677967,0 z"
       transform="matrix(1.0623852,-0.11196096,0.11196096,1.0623852,5.4163482,-0.21793844)"
       id="path3935-7-4-9"
       style="fill:#000000;fill-opacity:1;stroke:#000000;stroke-width:0.40000001;stroke-linecap:square;stroke-linejoin:miter;stroke-miterlimit:4;stroke-opacity:1;stroke-dasharray:none;stroke-dashoffset:0" /><path
       d="m 7.6271186,10.271187 a 2.0338984,2.0338984 0 1 1 -4.0677967,0 2.0338984,2.0338984 0 1 1 4.0677967,0 z"
       transform="matrix(1.0623852,-0.11196096,0.11196096,1.0623852,-1.7022958,-0.21793751)"
       id="path3935-7-4-4"
       style="fill:#000000;fill-opacity:1;stroke:#000000;stroke-width:0.40000001;stroke-linecap:square;stroke-linejoin:miter;stroke-miterlimit:4;stroke-opacity:1;stroke-dasharray:none;stroke-dashoffset:0" /></g></svg>