<?xml version="1.0" encoding="UTF-8" standalone="no"?>
<!-- Created with Inkscape (http://www.inkscape.org/) -->

<svg
   xmlns:dc="http://purl.org/dc/elements/1.1/"
   xmlns:cc="http://creativecommons.org/ns#"
   xmlns:rdf="http://www.w3.org/1999/02/22-rdf-syntax-ns#"
   xmlns:svg="http://www.w3.org/2000/svg"
   xmlns="http://www.w3.org/2000/svg"
   version="1.1"
   width="100%"
   height="100%"
   viewBox="0 0 28 28"
   id="Capa_1"
   xml:space="preserve"><metadata
   id="metadata41"><rdf:RDF><cc:Work
       rdf:about=""><dc:format>image/svg+xml</dc:format><dc:type
         rdf:resource="http://purl.org/dc/dcmitype/StillImage" /><dc:title></dc:title></cc:Work></rdf:RDF></metadata><defs
   id="defs39" />
<g
   id="g3">
	<path
   d="M 0,24 4,28 14,18 24,28 28,24 18,14 28,4 24,0 14,10 4,0 0,4 10,14 0,24 z"
   id="path5"
   style="fill:#030104" />
<path
   d="M 2.0461539,25.953847 0.11870513,24.026398 5.130863,19.013198 10.143021,14 5.130863,8.9868012 0.11870513,3.9736026 2.0461539,2.0461539 3.9736026,0.11870513 8.9868012,5.130863 14,10.143021 19.013198,5.130863 24.026398,0.11870513 25.953847,2.0461539 27.881295,3.9736026 22.869136,8.9868012 17.856979,14 l 5.012157,5.013198 5.012159,5.0132 -1.927448,1.927449 -1.927449,1.927448 -5.0132,-5.012159 L 14,17.856979 8.9868012,22.869136 3.9736026,27.881295 2.0461539,25.953847 z"
   id="path3018"
   style="opacity:0.69911505;fill:#ffffff;fill-opacity:1;stroke:none" /><path
   d="M 2.1054614,25.894539 0.23733472,24.026412 5.2494998,19.013205 10.261665,14 5.2494998,8.986794 0.23733472,3.9735881 2.1054614,2.1054614 3.9735881,0.23733472 8.986794,5.2494998 14,10.261665 19.013205,5.2494998 24.026412,0.23733472 25.894539,2.1054614 27.762666,3.9735881 22.750501,8.986794 17.738335,14 l 5.012166,5.013205 5.012165,5.013207 -1.868127,1.868127 -1.868127,1.868127 L 19.013205,22.750501 14,17.738335 8.986794,22.750501 3.9735881,27.762666 2.1054614,25.894539 z"
   id="path3020"
   style="opacity:0.69911505;fill:#ffffff;fill-opacity:1;stroke:none" /><path
   d="M 2.164768,25.835232 0.35596335,24.026427 5.3681362,19.013214 10.380309,14 5.3681362,8.9867863 0.35596335,3.9735727 2.164768,2.164768 3.9735727,0.35596335 8.9867863,5.3681362 14,10.380309 19.013214,5.3681362 24.026427,0.35596335 25.835232,2.164768 27.644037,3.9735727 22.631864,8.9867863 17.619691,14 l 5.012173,5.013214 5.012173,5.013213 -1.808805,1.808805 -1.808805,1.808805 L 19.013214,22.631864 14,17.619691 8.9867863,22.631864 3.9735727,27.644037 2.164768,25.835232 z"
   id="path3022"
   style="opacity:0.69911505;fill:#ffffff;fill-opacity:1;stroke:none" /><path
   d="M 2.2240736,25.775927 0.47459094,24.026444 5.486772,19.013222 10.498953,14 5.486772,8.9867781 0.47459094,3.9735562 2.2240736,2.2240736 3.9735562,0.47459094 8.9867781,5.486772 14,10.498953 19.013222,5.486772 24.026444,0.47459094 25.775927,2.2240736 27.525409,3.9735562 22.513228,8.9867781 17.501046,14 l 5.012182,5.013222 5.012181,5.013222 -1.749482,1.749483 -1.749483,1.749482 L 19.013222,22.513228 14,17.501046 8.9867781,22.513228 3.9735562,27.525409 2.2240736,25.775927 z"
   id="path3024"
   style="opacity:0.69911505;fill:#ffffff;fill-opacity:1;stroke:none" /><path
   d="M 2.2240736,25.775927 0.47459094,24.026444 5.486772,19.013222 10.498953,14 5.486772,8.9867781 0.47459094,3.9735562 2.2240736,2.2240736 3.9735562,0.47459094 8.9867781,5.486772 14,10.498953 19.013222,5.486772 24.026444,0.47459094 25.775927,2.2240736 27.525409,3.9735562 22.513228,8.9867781 17.501046,14 l 5.012182,5.013222 5.012181,5.013222 -1.749482,1.749483 -1.749483,1.749482 L 19.013222,22.513228 14,17.501046 8.9867781,22.513228 3.9735562,27.525409 2.2240736,25.775927 z"
   id="path3026"
   style="opacity:0.69911505;fill:#ffffff;fill-opacity:1;stroke:none" /><path
   d="M 2.2240736,25.775927 0.47459094,24.026444 5.486772,19.013222 10.498953,14 5.486772,8.9867781 0.47459094,3.9735562 2.2240736,2.2240736 3.9735562,0.47459094 8.9867781,5.486772 14,10.498953 19.013222,5.486772 24.026444,0.47459094 25.775927,2.2240736 27.525409,3.9735562 22.513228,8.9867781 17.501046,14 l 5.012182,5.013222 5.012181,5.013222 -1.749482,1.749483 -1.749483,1.749482 L 19.013222,22.513228 14,17.501046 8.9867781,22.513228 3.9735562,27.525409 2.2240736,25.775927 z"
   id="path3028"
   style="opacity:0.69911505;fill:#ffffff;fill-opacity:1;stroke:none" /><path
   d="M 2.2240736,25.775927 0.47459094,24.026444 5.486772,19.013222 10.498953,14 5.486772,8.9867781 0.47459094,3.9735562 2.2240736,2.2240736 3.9735562,0.47459094 8.9867781,5.486772 14,10.498953 19.013222,5.486772 24.026444,0.47459094 25.775927,2.2240736 27.525409,3.9735562 22.513228,8.9867781 17.501046,14 l 5.012182,5.013222 5.012181,5.013222 -1.749482,1.749483 -1.749483,1.749482 L 19.013222,22.513228 14,17.501046 8.9867781,22.513228 3.9735562,27.525409 2.2240736,25.775927 z"
   id="path3030"
   style="opacity:0.69911505;fill:#ffffff;fill-opacity:1;stroke:none" /><path
   d="M 2.2240736,25.775927 0.47459094,24.026444 5.486772,19.013222 10.498953,14 5.486772,8.9867781 0.47459094,3.9735562 2.2240736,2.2240736 3.9735562,0.47459094 8.9867781,5.486772 14,10.498953 19.013222,5.486772 24.026444,0.47459094 25.775927,2.2240736 27.525409,3.9735562 22.513228,8.9867781 17.501046,14 l 5.012182,5.013222 5.012181,5.013222 -1.749482,1.749483 -1.749483,1.749482 L 19.013222,22.513228 14,17.501046 8.9867781,22.513228 3.9735562,27.525409 2.2240736,25.775927 z"
   id="path3032"
   style="opacity:0.69911505;fill:#ffffff;fill-opacity:1;stroke:none" /><path
   d="M 2.2240736,25.775927 0.47459094,24.026444 5.486772,19.013222 10.498953,14 5.486772,8.9867781 0.47459094,3.9735562 2.2240736,2.2240736 3.9735562,0.47459094 8.9867781,5.486772 14,10.498953 19.013222,5.486772 24.026444,0.47459094 25.775927,2.2240736 27.525409,3.9735562 22.513228,8.9867781 17.501046,14 l 5.012182,5.013222 5.012181,5.013222 -1.749482,1.749483 -1.749483,1.749482 L 19.013222,22.513228 14,17.501046 8.9867781,22.513228 3.9735562,27.525409 2.2240736,25.775927 z"
   id="path3034"
   style="opacity:0.69911505;fill:#ffffff;fill-opacity:1;stroke:none" /><path
   d="M 2.2240736,25.775927 0.47459094,24.026444 5.486772,19.013222 10.498953,14 5.486772,8.9867781 0.47459094,3.9735562 2.2240736,2.2240736 3.9735562,0.47459094 8.9867781,5.486772 14,10.498953 19.013222,5.486772 24.026444,0.47459094 25.775927,2.2240736 27.525409,3.9735562 22.513228,8.9867781 17.501046,14 l 5.012182,5.013222 5.012181,5.013222 -1.749482,1.749483 -1.749483,1.749482 L 19.013222,22.513228 14,17.501046 8.9867781,22.513228 3.9735562,27.525409 2.2240736,25.775927 z"
   id="path3036"
   style="opacity:0.69911505;fill:#ffffff;fill-opacity:1;stroke:none" /><path
   d="M 2.2240736,25.775927 0.47459094,24.026444 5.486772,19.013222 10.498953,14 5.486772,8.9867781 0.47459094,3.9735562 2.2240736,2.2240736 3.9735562,0.47459094 8.9867781,5.486772 14,10.498953 19.013222,5.486772 24.026444,0.47459094 25.775927,2.2240736 27.525409,3.9735562 22.513228,8.9867781 17.501046,14 l 5.012182,5.013222 5.012181,5.013222 -1.749482,1.749483 -1.749483,1.749482 L 19.013222,22.513228 14,17.501046 8.9867781,22.513228 3.9735562,27.525409 2.2240736,25.775927 z"
   id="path3038"
   style="opacity:0.69911505;fill:#ffffff;fill-opacity:1;stroke:none" /><path
   d="M 2.2240736,25.775927 0.47459094,24.026444 5.486772,19.013222 10.498953,14 5.486772,8.9867781 0.47459094,3.9735562 2.2240736,2.2240736 3.9735562,0.47459094 8.9867781,5.486772 14,10.498953 19.013222,5.486772 24.026444,0.47459094 25.775927,2.2240736 27.525409,3.9735562 22.513228,8.9867781 17.501046,14 l 5.012182,5.013222 5.012181,5.013222 -1.749482,1.749483 -1.749483,1.749482 L 19.013222,22.513228 14,17.501046 8.9867781,22.513228 3.9735562,27.525409 2.2240736,25.775927 z"
   id="path3040"
   style="opacity:0.69911505;fill:#ffffff;fill-opacity:1;stroke:none" /><path
   d="M 2.2240736,25.775927 0.47459094,24.026444 5.486772,19.013222 10.498953,14 5.486772,8.9867781 0.47459094,3.9735562 2.2240736,2.2240736 3.9735562,0.47459094 8.9867781,5.486772 14,10.498953 19.013222,5.486772 24.026444,0.47459094 25.775927,2.2240736 27.525409,3.9735562 22.513228,8.9867781 17.501046,14 l 5.012182,5.013222 5.012181,5.013222 -1.749482,1.749483 -1.749483,1.749482 L 19.013222,22.513228 14,17.501046 8.9867781,22.513228 3.9735562,27.525409 2.2240736,25.775927 z"
   id="path3042"
   style="opacity:0.69911505;fill:#ffffff;fill-opacity:1;stroke:none" /><path
   d="M 2.2240736,25.775927 0.47459094,24.026444 5.486772,19.013222 10.498953,14 5.486772,8.9867781 0.47459094,3.9735562 2.2240736,2.2240736 3.9735562,0.47459094 8.9867781,5.486772 14,10.498953 19.013222,5.486772 24.026444,0.47459094 25.775927,2.2240736 27.525409,3.9735562 22.513228,8.9867781 17.501046,14 l 5.012182,5.013222 5.012181,5.013222 -1.749482,1.749483 -1.749483,1.749482 L 19.013222,22.513228 14,17.501046 8.9867781,22.513228 3.9735562,27.525409 2.2240736,25.775927 z"
   id="path3044"
   style="opacity:0.69911505;fill:#ffffff;fill-opacity:1;stroke:none" /><path
   d="M 2.2240736,25.775927 0.47459094,24.026444 5.486772,19.013222 10.498953,14 5.486772,8.9867781 0.47459094,3.9735562 2.2240736,2.2240736 3.9735562,0.47459094 8.9867781,5.486772 14,10.498953 19.013222,5.486772 24.026444,0.47459094 25.775927,2.2240736 27.525409,3.9735562 22.513228,8.9867781 17.501046,14 l 5.012182,5.013222 5.012181,5.013222 -1.749482,1.749483 -1.749483,1.749482 L 19.013222,22.513228 14,17.501046 8.9867781,22.513228 3.9735562,27.525409 2.2240736,25.775927 z"
   id="path3046"
   style="opacity:0.69911505;fill:#ffffff;fill-opacity:1;stroke:none" /><path
   d="M 2.2240736,25.775927 0.47459094,24.026444 5.486772,19.013222 10.498953,14 5.486772,8.9867781 0.47459094,3.9735562 2.2240736,2.2240736 3.9735562,0.47459094 8.9867781,5.486772 14,10.498953 19.013222,5.486772 24.026444,0.47459094 25.775927,2.2240736 27.525409,3.9735562 22.513228,8.9867781 17.501046,14 l 5.012182,5.013222 5.012181,5.013222 -1.749482,1.749483 -1.749483,1.749482 L 19.013222,22.513228 14,17.501046 8.9867781,22.513228 3.9735562,27.525409 2.2240736,25.775927 z"
   id="path3048"
   style="opacity:0.69911505;fill:#ffffff;fill-opacity:1;stroke:none" /><path
   d="M 2.2240736,25.775927 0.47459094,24.026444 5.486772,19.013222 10.498953,14 5.486772,8.9867781 0.47459094,3.9735562 2.2240736,2.2240736 3.9735562,0.47459094 8.9867781,5.486772 14,10.498953 19.013222,5.486772 24.026444,0.47459094 25.775927,2.2240736 27.525409,3.9735562 22.513228,8.9867781 17.501046,14 l 5.012182,5.013222 5.012181,5.013222 -1.749482,1.749483 -1.749483,1.749482 L 19.013222,22.513228 14,17.501046 8.9867781,22.513228 3.9735562,27.525409 2.2240736,25.775927 z"
   id="path3050"
   style="opacity:0.69911505;fill:#ffffff;fill-opacity:1;stroke:none" /><path
   d="M 2.2240736,25.775927 0.47459094,24.026444 5.486772,19.013222 10.498953,14 5.486772,8.9867781 0.47459094,3.9735562 2.2240736,2.2240736 3.9735562,0.47459094 8.9867781,5.486772 14,10.498953 19.013222,5.486772 24.026444,0.47459094 25.775927,2.2240736 27.525409,3.9735562 22.513228,8.9867781 17.501046,14 l 5.012182,5.013222 5.012181,5.013222 -1.749482,1.749483 -1.749483,1.749482 L 19.013222,22.513228 14,17.501046 8.9867781,22.513228 3.9735562,27.525409 2.2240736,25.775927 z"
   id="path3052"
   style="opacity:0.69911505;fill:#ffffff;fill-opacity:1;stroke:none" /><path
   d="M 2.2240736,25.775927 0.47459094,24.026444 5.486772,19.013222 10.498953,14 5.486772,8.9867781 0.47459094,3.9735562 2.2240736,2.2240736 3.9735562,0.47459094 8.9867781,5.486772 14,10.498953 19.013222,5.486772 24.026444,0.47459094 25.775927,2.2240736 27.525409,3.9735562 22.513228,8.9867781 17.501046,14 l 5.012182,5.013222 5.012181,5.013222 -1.749482,1.749483 -1.749483,1.749482 L 19.013222,22.513228 14,17.501046 8.9867781,22.513228 3.9735562,27.525409 2.2240736,25.775927 z"
   id="path3054"
   style="opacity:0.69911505;fill:#ffffff;fill-opacity:1;stroke:none" /><path
   d="M 2.2240736,25.775927 0.47459094,24.026444 5.486772,19.013222 10.498953,14 5.486772,8.9867781 0.47459094,3.9735562 2.2240736,2.2240736 3.9735562,0.47459094 8.9867781,5.486772 14,10.498953 19.013222,5.486772 24.026444,0.47459094 25.775927,2.2240736 27.525409,3.9735562 22.513228,8.9867781 17.501046,14 l 5.012182,5.013222 5.012181,5.013222 -1.749482,1.749483 -1.749483,1.749482 L 19.013222,22.513228 14,17.501046 8.9867781,22.513228 3.9735562,27.525409 2.2240736,25.775927 z"
   id="path3056"
   style="opacity:0.69911505;fill:#ffffff;fill-opacity:1;stroke:none" /><path
   d=""
   id="path3058"
   style="opacity:0.69911505;fill:#ffffff;fill-opacity:1;stroke:none" /><path
   d=""
   id="path3060"
   style="opacity:0.69911505;fill:#ffffff;fill-opacity:1;stroke:none" /><path
   d=""
   id="path3062"
   style="opacity:0.69911505;fill:#ffffff;fill-opacity:1;stroke:none" /><path
   d=""
   id="path3064"
   style="opacity:0.69911505;fill:#ffffff;fill-opacity:1;stroke:none" /></g>
<g
   id="g7">
</g>
<g
   id="g9">
</g>
<g
   id="g11">
</g>
<g
   id="g13">
</g>
<g
   id="g15">
</g>
<g
   id="g17">
</g>
<g
   id="g19">
</g>
<g
   id="g21">
</g>
<g
   id="g23">
</g>
<g
   id="g25">
</g>
<g
   id="g27">
</g>
<g
   id="g29">
</g>
<g
   id="g31">
</g>
<g
   id="g33">
</g>
<g
   id="g35">
</g>
</svg>