<svg xmlns="http://www.w3.org/2000/svg" viewBox="0 0 34.98 56.04"><defs><style>.cls-1,.cls-2{fill:#fff;}.cls-2{fill-rule:evenodd;}</style></defs><title>Clipboard OFF</title><g id="Layer_2" data-name="Layer 2"><g id="Layer_1-2" data-name="Layer 1"><path class="cls-1" d="M0,47.9c0-3.42,1.82-5.53,4.74-5.53A4.22,4.22,0,0,1,9.12,46H7.49A2.71,2.71,0,0,0,4.74,43.9c-1.89,0-3.07,1.54-3.07,4s1.18,4,3.08,4A2.65,2.65,0,0,0,7.49,50H9.12a4.11,4.11,0,0,1-4.37,3.46C1.82,53.41,0,51.3,0,47.9Z"/><path class="cls-1" d="M10.4,49.18c0-2.56,1.43-4.12,3.74-4.12s3.75,1.56,3.75,4.12-1.43,4.13-3.75,4.13S10.4,51.75,10.4,49.18Zm5.87,0c0-1.72-.77-2.73-2.13-2.73S12,47.46,12,49.18s.77,2.73,2.13,2.73S16.27,50.91,16.27,49.18Z"/><path class="cls-1" d="M26.9,49.18c0,2.52-1.28,4.11-3.28,4.11A2.6,2.6,0,0,1,21.17,52h-.12v3.84H19.48V45.21H21v1.31h.12a2.76,2.76,0,0,1,2.49-1.44C25.62,45.08,26.9,46.66,26.9,49.18Zm-1.61,0c0-1.68-.8-2.69-2.13-2.69s-2.14,1-2.14,2.7.82,2.69,2.14,2.69S25.29,50.86,25.29,49.18Z"/><path class="cls-1" d="M28.32,56V54.65a4.24,4.24,0,0,0,.51,0,1.36,1.36,0,0,0,1.44-1.11l.12-.39-2.88-8h1.71l2,6.31h.12l2-6.31H35l-3,8.27C31.34,55.42,30.59,56,29,56,28.84,56,28.47,56,28.32,56Z"/><g id="Icon_Clipboard" data-name="Icon Clipboard"><path class="cls-2" d="M21.6,3.05a4.55,4.55,0,0,0-8.59,0H2.06V36.59H32.55V3.05Zm-4.3,0a1.53,1.53,0,1,1-1.52,1.52A1.53,1.53,0,0,1,17.3,3.05ZM30.92,35,3.69,35V4.68h6V7.62A1.52,1.52,0,0,0,11.2,9.15H23.4a1.53,1.53,0,0,0,1.53-1.53V4.68l6,0Z"/></g><rect class="cls-1" x="16.5" y="4.6" width="1.62" height="18.28" rx="0.81" ry="0.81" transform="matrix(0, 1, -1, 0, 31.05, -3.57)"/><rect class="cls-1" x="16.5" y="10.64" width="1.63" height="18.28" rx="0.81" ry="0.81" transform="matrix(0, 1, -1, 0, 37.09, 2.48)"/></g></g></svg>