<svg width="28" height="28" viewBox="0 0 28 28" fill="none" xmlns="http://www.w3.org/2000/svg">
<g opacity="0.1">
<path fill-rule="evenodd" clip-rule="evenodd" d="M24.3403 24.8624C24.7796 24.4125 24.7796 23.683 24.3403 23.2331L15.5907 14.2713L24.8701 4.76687C25.3094 4.31693 25.3094 3.58744 24.8701 3.1375C24.4309 2.68756 23.7186 2.68756 23.2793 3.1375L13.9999 12.642L4.72039 3.13743C4.28111 2.68749 3.56888 2.68749 3.12959 3.13743C2.6903 3.58737 2.6903 4.31686 3.12959 4.7668L12.4091 14.2713L3.65945 23.2331C3.22017 23.6831 3.22017 24.4126 3.65945 24.8625C4.09874 25.3125 4.81097 25.3125 5.25026 24.8625L13.9999 15.9007L22.7495 24.8624C23.1888 25.3124 23.901 25.3124 24.3403 24.8624Z" fill="white"/>
</g>
</svg>
