<svg width="27" height="36" viewBox="0 0 27 36" fill="none" xmlns="http://www.w3.org/2000/svg">
<path d="M6.74231 27.511H7.7873C7.72864 27.093 7.60397 26.7263 7.41331 26.411C7.22264 26.0883 6.9843 25.8207 6.69831 25.608C6.4123 25.3953 6.08597 25.234 5.7193 25.124C5.35264 25.014 4.96397 24.959 4.5533 24.959C3.95197 24.959 3.41664 25.069 2.9473 25.289C2.4853 25.5017 2.09664 25.795 1.7813 26.169C1.4733 26.543 1.23864 26.983 1.0773 27.489C0.915971 27.9877 0.835305 28.523 0.835305 29.095C0.835305 29.667 0.908638 30.2023 1.0553 30.701C1.2093 31.1997 1.43664 31.6323 1.7373 31.999C2.03797 32.3657 2.41564 32.6553 2.8703 32.868C3.32497 33.0733 3.85664 33.176 4.4653 33.176C5.46997 33.176 6.26197 32.901 6.84131 32.351C7.42064 31.801 7.76164 31.031 7.86431 30.041H6.8193C6.79731 30.3637 6.73131 30.6643 6.6213 30.943C6.5113 31.2217 6.3573 31.4637 6.1593 31.669C5.96864 31.867 5.73764 32.0247 5.4663 32.142C5.2023 32.252 4.89797 32.307 4.5533 32.307C4.08397 32.307 3.68064 32.219 3.3433 32.043C3.00597 31.867 2.7273 31.6323 2.5073 31.339C2.29464 31.0383 2.13697 30.69 2.0343 30.294C1.93164 29.8907 1.8803 29.4653 1.8803 29.018C1.8803 28.6073 1.93164 28.2113 2.0343 27.83C2.13697 27.4487 2.29464 27.1113 2.5073 26.818C2.7273 26.5173 3.0023 26.279 3.3323 26.103C3.66964 25.927 4.07297 25.839 4.5423 25.839C5.0923 25.839 5.5653 25.9783 5.9613 26.257C6.36464 26.5357 6.62497 26.9537 6.74231 27.511ZM9.68678 30.162C9.68678 29.8173 9.73078 29.513 9.81878 29.249C9.91411 28.9777 10.0424 28.7503 10.2038 28.567C10.3651 28.3837 10.5521 28.2443 10.7648 28.149C10.9848 28.0537 11.2158 28.006 11.4578 28.006C11.6998 28.006 11.9271 28.0537 12.1398 28.149C12.3598 28.2443 12.5504 28.3837 12.7118 28.567C12.8731 28.7503 12.9978 28.9777 13.0858 29.249C13.1811 29.513 13.2288 29.8173 13.2288 30.162C13.2288 30.5067 13.1811 30.8147 13.0858 31.086C12.9978 31.35 12.8731 31.5737 12.7118 31.757C12.5504 31.933 12.3598 32.0687 12.1398 32.164C11.9271 32.2593 11.6998 32.307 11.4578 32.307C11.2158 32.307 10.9848 32.2593 10.7648 32.164C10.5521 32.0687 10.3651 31.933 10.2038 31.757C10.0424 31.5737 9.91411 31.35 9.81878 31.086C9.73078 30.8147 9.68678 30.5067 9.68678 30.162ZM8.69678 30.162C8.69678 30.58 8.75545 30.9687 8.87278 31.328C8.99011 31.6873 9.16611 32.0027 9.40078 32.274C9.63545 32.538 9.92511 32.747 10.2698 32.901C10.6144 33.0477 11.0104 33.121 11.4578 33.121C11.9124 33.121 12.3084 33.0477 12.6458 32.901C12.9904 32.747 13.2801 32.538 13.5148 32.274C13.7494 32.0027 13.9254 31.6873 14.0428 31.328C14.1601 30.9687 14.2188 30.58 14.2188 30.162C14.2188 29.744 14.1601 29.3553 14.0428 28.996C13.9254 28.6293 13.7494 28.314 13.5148 28.05C13.2801 27.7787 12.9904 27.566 12.6458 27.412C12.3084 27.258 11.9124 27.181 11.4578 27.181C11.0104 27.181 10.6144 27.258 10.2698 27.412C9.92511 27.566 9.63545 27.7787 9.40078 28.05C9.16611 28.314 8.99011 28.6293 8.87278 28.996C8.75545 29.3553 8.69678 29.744 8.69678 30.162ZM15.3542 27.313V35.167H16.2892V32.241H16.3112C16.4139 32.4097 16.5385 32.5527 16.6852 32.67C16.8392 32.78 17.0005 32.868 17.1692 32.934C17.3379 33 17.5065 33.0477 17.6752 33.077C17.8512 33.1063 18.0089 33.121 18.1482 33.121C18.5809 33.121 18.9585 33.044 19.2812 32.89C19.6112 32.736 19.8825 32.527 20.0952 32.263C20.3152 31.9917 20.4765 31.6763 20.5792 31.317C20.6892 30.9577 20.7442 30.5763 20.7442 30.173C20.7442 29.7697 20.6892 29.3883 20.5792 29.029C20.4692 28.6697 20.3042 28.3543 20.0842 28.083C19.8715 27.8043 19.6002 27.5843 19.2702 27.423C18.9475 27.2617 18.5662 27.181 18.1262 27.181C17.7302 27.181 17.3672 27.2543 17.0372 27.401C16.7072 27.5403 16.4652 27.7677 16.3112 28.083H16.2892V27.313H15.3542ZM19.7542 30.107C19.7542 30.3857 19.7249 30.657 19.6662 30.921C19.6075 31.185 19.5122 31.4197 19.3802 31.625C19.2482 31.8303 19.0722 31.9953 18.8522 32.12C18.6395 32.2447 18.3719 32.307 18.0492 32.307C17.7265 32.307 17.4515 32.2483 17.2242 32.131C16.9969 32.0063 16.8099 31.845 16.6632 31.647C16.5239 31.449 16.4212 31.2217 16.3552 30.965C16.2892 30.701 16.2562 30.4297 16.2562 30.151C16.2562 29.887 16.2855 29.6267 16.3442 29.37C16.4102 29.1133 16.5129 28.886 16.6522 28.688C16.7915 28.4827 16.9712 28.3177 17.1912 28.193C17.4112 28.0683 17.6789 28.006 17.9942 28.006C18.2949 28.006 18.5552 28.0647 18.7752 28.182C19.0025 28.2993 19.1859 28.457 19.3252 28.655C19.4719 28.853 19.5782 29.0803 19.6442 29.337C19.7175 29.5863 19.7542 29.843 19.7542 30.107ZM24.0747 33.759C23.9647 34.0377 23.8547 34.2723 23.7447 34.463C23.642 34.6537 23.5247 34.8077 23.3927 34.925C23.268 35.0497 23.125 35.1377 22.9637 35.189C22.8097 35.2477 22.63 35.277 22.4247 35.277C22.3147 35.277 22.2047 35.2697 22.0947 35.255C21.9847 35.2403 21.8784 35.2147 21.7757 35.178V34.32C21.8564 34.3567 21.948 34.386 22.0507 34.408C22.1607 34.4373 22.2524 34.452 22.3257 34.452C22.5164 34.452 22.674 34.4043 22.7987 34.309C22.9307 34.221 23.0297 34.0927 23.0957 33.924L23.4807 32.967L21.2257 27.313H22.2817L23.9427 31.966H23.9647L25.5597 27.313H26.5497L24.0747 33.759Z" fill="#F7F7F8"/>
<path d="M15.5 6.25H4.25C3.55965 6.25 3 6.80965 3 7.5V18.75C3 19.4404 3.55965 20 4.25 20H15.5C16.1904 20 16.75 19.4404 16.75 18.75V7.5C16.75 6.80965 16.1904 6.25 15.5 6.25ZM15.5 18.75H4.25V7.5H15.5V18.75Z" fill="url(#paint0_linear)"/>
<path d="M21.75 0H10.5C9.80965 0 9.25 0.559648 9.25 1.25V4.375H10.5V1.25H21.75V12.5H18.625V13.75H21.75C22.4404 13.75 23 13.1904 23 12.5V1.25C23 0.559648 22.4404 0 21.75 0Z" fill="url(#paint1_linear)"/>
<defs>
<linearGradient id="paint0_linear" x1="9.875" y1="6.25" x2="9.875" y2="20" gradientUnits="userSpaceOnUse">
<stop stop-color="#FFE955"/>
<stop offset="1" stop-color="#EEBA00"/>
</linearGradient>
<linearGradient id="paint1_linear" x1="16.125" y1="0" x2="16.125" y2="13.75" gradientUnits="userSpaceOnUse">
<stop stop-color="#FFE955"/>
<stop offset="1" stop-color="#EEBA00"/>
</linearGradient>
</defs>
</svg>
