<svg xmlns="http://www.w3.org/2000/svg" viewBox="0 0 8.83 19.03"><defs><style>.cls-1{fill:#fff;}</style></defs><title>Asset 1</title><g id="Layer_2" data-name="Layer 2"><g id="Facebook-White"><path class="cls-1" d="M1.88,14.27c0-1.51,0-3,0-4.52,0-.18,0-.24-.23-.23-.48,0-1,0-1.43,0-.16,0-.22,0-.22-.21,0-1,0-2,0-3,0-.14,0-.19.19-.19H1.64c.24,0,.24,0,.24-.25,0-.71,0-1.42,0-2.12a4.1,4.1,0,0,1,.89-2.54A3.06,3.06,0,0,1,4.51.19,7.82,7.82,0,0,1,6,0C6.84,0,7.72,0,8.6,0c.15,0,.2,0,.2.19q0,1.43,0,2.87c0,.16-.06.2-.21.2H6.74a.78.78,0,0,0-.89.84c0,.63,0,1.26,0,1.89,0,.16.1.16.22.16H8.58c.28,0,.27,0,.24.27-.1,1-.2,1.9-.29,2.85,0,.2-.08.23-.26.23H6.05c-.18,0-.23.05-.23.23q0,3.22,0,6.45c0,.88,0,1.76,0,2.63,0,.16-.05.21-.21.21H2.1c-.16,0-.22,0-.22-.22C1.89,17.3,1.88,15.78,1.88,14.27Z"/></g></g></svg>