<svg xmlns="http://www.w3.org/2000/svg" viewBox="0 0 52.42 60.57"><defs><style>.cls-1{fill:#cecfd1;}.cls-2{fill:#6d6e71;}.cls-3{fill:#ffe100;}.cls-4{fill:#f9b21d;}</style></defs><title>Asset 3</title><g id="Layer_2" data-name="Layer 2"><g id="Layer_1-2" data-name="Layer 1"><path class="cls-1" d="M26.21,0,0,15.14V45.42L26.21,60.57,52.42,45.42V15.14ZM43.67,40.37,26.21,50.45,8.75,40.37V20.2L26.21,10.11,43.67,20.2Z"/><path class="cls-2" d="M8.75,20.2V40.37L26.21,50.45,43.67,40.37V20.2L26.21,10.11Zm29.09,3.37V37L26.21,43.72,14.59,37V23.57l11.62-6.72,11.6,6.7,0,0Z"/><polygon class="cls-3" points="37.84 37 37.84 36.95 26.21 43.72 37.84 37"/><polygon class="cls-3" points="37.81 23.55 26.21 16.85 14.59 23.57 14.59 37 26.21 43.72 26.21 30.3 37.81 23.55"/><polygon class="cls-4" points="26.21 30.3 26.21 43.72 37.84 36.95 37.84 23.57 37.84 23.53 37.81 23.55 26.21 30.3"/></g></g></svg>