<svg width="24" height="10" viewBox="0 0 24 10" fill="none" xmlns="http://www.w3.org/2000/svg">
<path d="M4.994 3.44498H5.984C5.96933 3.01232 5.885 2.64198 5.731 2.33398C5.58433 2.01865 5.379 1.75832 5.115 1.55298C4.85833 1.34765 4.55767 1.19732 4.213 1.10198C3.86833 1.00665 3.49433 0.958984 3.091 0.958984C2.73167 0.958984 2.37967 1.00665 2.035 1.10198C1.69767 1.18998 1.39333 1.32932 1.122 1.51998C0.858 1.70332 0.645333 1.94165 0.484 2.23498C0.322667 2.52098 0.242 2.86198 0.242 3.25798C0.242 3.61732 0.311667 3.91798 0.451 4.15998C0.597667 4.39465 0.788333 4.58898 1.023 4.74298C1.265 4.88965 1.53633 5.01065 1.837 5.10598C2.13767 5.19398 2.442 5.27465 2.75 5.34798C3.06533 5.41398 3.37333 5.47998 3.674 5.54598C3.97467 5.61198 4.24233 5.69998 4.477 5.80998C4.719 5.91265 4.90967 6.04832 5.049 6.21698C5.19567 6.38565 5.269 6.60565 5.269 6.87698C5.269 7.16298 5.21033 7.39765 5.093 7.58099C4.97567 7.76432 4.82167 7.91098 4.631 8.02098C4.44033 8.12365 4.224 8.19698 3.982 8.24098C3.74733 8.28499 3.51267 8.30698 3.278 8.30698C2.98467 8.30698 2.69867 8.27032 2.42 8.19698C2.14133 8.12365 1.89567 8.00998 1.683 7.85598C1.47767 7.70198 1.309 7.50765 1.177 7.27298C1.05233 7.03098 0.99 6.74498 0.99 6.41498H0C0 6.89165 0.0843333 7.30598 0.253 7.65798C0.429 8.00265 0.663667 8.28865 0.957 8.51598C1.25767 8.73598 1.60233 8.90098 1.991 9.01098C2.387 9.12098 2.805 9.17598 3.245 9.17598C3.60433 9.17598 3.96367 9.13198 4.323 9.04398C4.68967 8.96332 5.01967 8.83132 5.313 8.64798C5.60633 8.45732 5.84467 8.21532 6.028 7.92198C6.21867 7.62132 6.314 7.26198 6.314 6.84398C6.314 6.45532 6.24067 6.13265 6.094 5.87598C5.95467 5.61932 5.764 5.40665 5.522 5.23798C5.28733 5.06932 5.01967 4.93732 4.719 4.84198C4.41833 4.73932 4.11033 4.65132 3.795 4.57798C3.487 4.50465 3.18267 4.43865 2.882 4.37998C2.58133 4.31398 2.31 4.23332 2.068 4.13798C1.83333 4.04265 1.64267 3.92165 1.496 3.77498C1.35667 3.62098 1.287 3.42298 1.287 3.18098C1.287 2.92432 1.33467 2.71165 1.43 2.54298C1.53267 2.36698 1.66467 2.22765 1.826 2.12498C1.99467 2.02232 2.18533 1.94898 2.398 1.90498C2.61067 1.86098 2.827 1.83898 3.047 1.83898C3.58967 1.83898 4.03333 1.96732 4.378 2.22398C4.73 2.47332 4.93533 2.88032 4.994 3.44498Z" fill="#F7F7F8"/>
<path d="M12.4678 8.97798C12.3065 9.07332 12.0828 9.12099 11.7968 9.12099C11.5548 9.12099 11.3605 9.05499 11.2138 8.92299C11.0745 8.78365 11.0048 8.55998 11.0048 8.25198C10.7481 8.55998 10.4475 8.78365 10.1028 8.92299C9.76548 9.05499 9.39881 9.12099 9.00281 9.12099C8.74615 9.12099 8.50048 9.09165 8.26581 9.03298C8.03848 8.97432 7.84048 8.88265 7.67181 8.75799C7.50315 8.63332 7.36748 8.47198 7.26481 8.27398C7.16948 8.06865 7.12181 7.82298 7.12181 7.53698C7.12181 7.21432 7.17681 6.95032 7.28681 6.74498C7.39681 6.53965 7.53981 6.37465 7.71581 6.24998C7.89915 6.11798 8.10448 6.01898 8.33181 5.95298C8.56648 5.88698 8.80481 5.83198 9.04681 5.78798C9.30348 5.73665 9.54548 5.69998 9.77281 5.67798C10.0075 5.64865 10.2128 5.61198 10.3888 5.56798C10.5648 5.51665 10.7041 5.44698 10.8068 5.35898C10.9095 5.26365 10.9608 5.12798 10.9608 4.95198C10.9608 4.74665 10.9205 4.58165 10.8398 4.45698C10.7665 4.33232 10.6675 4.23698 10.5428 4.17098C10.4255 4.10498 10.2898 4.06098 10.1358 4.03898C9.98915 4.01698 9.84248 4.00598 9.69581 4.00598C9.29981 4.00598 8.96981 4.08298 8.70581 4.23698C8.44181 4.38365 8.29881 4.66598 8.27681 5.08398H7.34181C7.35648 4.73198 7.42981 4.43498 7.56181 4.19298C7.69381 3.95098 7.86981 3.75665 8.08981 3.60998C8.30981 3.45598 8.55915 3.34598 8.83781 3.27998C9.12381 3.21398 9.42815 3.18098 9.75081 3.18098C10.0075 3.18098 10.2605 3.19932 10.5098 3.23598C10.7665 3.27265 10.9975 3.34965 11.2028 3.46698C11.4081 3.57698 11.5731 3.73465 11.6978 3.93998C11.8225 4.14532 11.8848 4.41298 11.8848 4.74298V7.66898C11.8848 7.88898 11.8958 8.05032 11.9178 8.15298C11.9471 8.25565 12.0351 8.30698 12.1818 8.30698C12.2625 8.30698 12.3578 8.28865 12.4678 8.25198V8.97798ZM10.9498 6.06298C10.8325 6.15098 10.6785 6.21698 10.4878 6.26098C10.2971 6.29765 10.0955 6.33065 9.88281 6.35998C9.67748 6.38198 9.46848 6.41132 9.25581 6.44798C9.04315 6.47732 8.85248 6.52865 8.68381 6.60198C8.51515 6.67532 8.37581 6.78165 8.26581 6.92098C8.16315 7.05298 8.11181 7.23632 8.11181 7.47098C8.11181 7.62498 8.14115 7.75698 8.19981 7.86698C8.26581 7.96965 8.34648 8.05398 8.44181 8.11998C8.54448 8.18598 8.66181 8.23365 8.79381 8.26298C8.92581 8.29232 9.06515 8.30698 9.21181 8.30698C9.51981 8.30698 9.78381 8.26665 10.0038 8.18598C10.2238 8.09798 10.4035 7.99165 10.5428 7.86698C10.6821 7.73498 10.7848 7.59565 10.8508 7.44899C10.9168 7.29499 10.9498 7.15198 10.9498 7.01998V6.06298Z" fill="#F7F7F8"/>
<path d="M15.901 8.99998L17.98 3.31298H17.001L15.45 8.05398H15.428L13.833 3.31298H12.788L14.9 8.99998H15.901Z" fill="#F7F7F8"/>
<path d="M22.787 5.61198H19.52C19.5347 5.39198 19.5823 5.18665 19.663 4.99598C19.7437 4.79798 19.8537 4.62565 19.993 4.47898C20.1323 4.33232 20.2973 4.21865 20.488 4.13798C20.686 4.04998 20.906 4.00598 21.148 4.00598C21.3827 4.00598 21.5954 4.04998 21.786 4.13798C21.984 4.21865 22.1527 4.33232 22.292 4.47898C22.4387 4.61832 22.5524 4.78698 22.633 4.98498C22.721 5.18298 22.7724 5.39198 22.787 5.61198ZM23.689 7.19598H22.765C22.6843 7.56998 22.5157 7.84865 22.259 8.03198C22.0097 8.21532 21.687 8.30698 21.291 8.30698C20.983 8.30698 20.7153 8.25565 20.488 8.15298C20.2607 8.05032 20.0737 7.91465 19.927 7.74599C19.7803 7.56998 19.674 7.37198 19.608 7.15198C19.542 6.92465 19.5127 6.68632 19.52 6.43699H23.777C23.7917 6.09232 23.7587 5.72932 23.678 5.34798C23.6047 4.96665 23.4653 4.61465 23.26 4.29198C23.062 3.96932 22.7943 3.70532 22.457 3.49998C22.127 3.28732 21.709 3.18098 21.203 3.18098C20.8144 3.18098 20.455 3.25432 20.125 3.40098C19.8023 3.54765 19.52 3.75298 19.278 4.01698C19.0433 4.28098 18.86 4.59265 18.728 4.95198C18.596 5.31132 18.53 5.70732 18.53 6.13998C18.5447 6.57265 18.607 6.97232 18.717 7.33898C18.8343 7.70565 19.0067 8.02098 19.234 8.28498C19.4613 8.54898 19.74 8.75432 20.07 8.90098C20.4074 9.04765 20.8034 9.12099 21.258 9.12099C21.9034 9.12099 22.4387 8.95965 22.864 8.63698C23.2893 8.31432 23.5644 7.83398 23.689 7.19598Z" fill="#F7F7F8"/>
</svg>
