<svg xmlns="http://www.w3.org/2000/svg" viewBox="0 0 23.26 17.13"><defs><style>.cls-1{fill:#fff;}.cls-2{fill:none;stroke:#1aaac2;stroke-miterlimit:10;}</style></defs><title>Asset 2</title><g id="Layer_2" data-name="Layer 2"><g id="Save-White"><path class="cls-1" d="M9.75,1.07h0A1.07,1.07,0,0,0,8.68,0H1.07A1.07,1.07,0,0,0,0,1.07v15a1.07,1.07,0,0,0,1.07,1.07H22.19a1.07,1.07,0,0,0,1.07-1.07V3.21a1.07,1.07,0,0,0-1.07-1.07H10.82A1.07,1.07,0,0,1,9.75,1.07Z"/><polyline class="cls-2" points="8.97 10.43 11.6 13.37 14.34 10.43"/><line class="cls-2" x1="11.57" y1="13.08" x2="11.57" y2="4.24"/><line class="cls-2" x1="7.99" y1="14.89" x2="15.27" y2="14.89"/></g></g></svg>