<svg xmlns="http://www.w3.org/2000/svg" viewBox="0 0 32.19 53.06"><defs><style>.cls-1{fill:#fff;}</style></defs><title>Asset 1</title><g id="Layer_2" data-name="Layer 2"><g id="Layer_1-2" data-name="Layer 1"><path class="cls-1" d="M1.58,50.06c.13,1,1.09,1.59,2.46,1.59S6.26,51,6.26,50.08s-.6-1.25-2-1.57L3,48.19c-1.86-.44-2.7-1.33-2.7-2.84C.28,43.52,1.77,42.3,4,42.3c2.08,0,3.61,1.22,3.7,3H6.16A2,2,0,0,0,4,43.71c-1.26,0-2.1.61-2.1,1.53,0,.73.54,1.15,1.88,1.47L4.9,47c2.11.49,3,1.35,3,2.89,0,2-1.52,3.19-3.95,3.19S.11,51.89,0,50.06Z"/><path class="cls-1" d="M9.28,50.63c0-1.4,1-2.2,2.88-2.32l2.1-.12v-.67c0-.81-.54-1.28-1.58-1.28-.86,0-1.45.32-1.62.86H9.58c.16-1.32,1.41-2.18,3.17-2.18,1.94,0,3,1,3,2.6v5.3H14.31V51.73h-.12a2.61,2.61,0,0,1-2.33,1.21A2.34,2.34,0,0,1,9.28,50.63Zm5-.67v-.64l-1.89.12c-1.07.07-1.55.43-1.55,1.11s.6,1.11,1.44,1.11A1.83,1.83,0,0,0,14.26,50Z"/><path class="cls-1" d="M21.45,52.82H19.81L17,45.07h1.64l1.92,6.11h.13l1.92-6.11h1.62Z"/><path class="cls-1" d="M32,50.72A3.15,3.15,0,0,1,28.66,53c-2.22,0-3.58-1.53-3.58-4s1.39-4,3.57-4,3.46,1.47,3.46,3.91v.53H26.64v.08a2,2,0,0,0,2.06,2.22,1.86,1.86,0,0,0,1.85-.94Zm-5.38-2.49h3.91a1.86,1.86,0,0,0-1.9-2A2,2,0,0,0,26.64,48.23Z"/><path class="cls-1" d="M16.34,0,.5,9.15V27.44l15.84,9.15,15.85-9.15V9.15Zm-.11,32.31L4.47,22.47l.93-1.11,10.08,8.42V5.5h1.45V29.88l10.6-8.53.91,1.13Z"/></g></g></svg>