<?xml version="1.0" encoding="utf-8"?>
<!-- Generator: Adobe Illustrator 22.1.0, SVG Export Plug-In . SVG Version: 6.00 Build 0)  -->
<svg version="1.1" id="Layer_1" xmlns="http://www.w3.org/2000/svg" xmlns:xlink="http://www.w3.org/1999/xlink" x="0px" y="0px"
	 viewBox="0 0 33.1 52.2" style="enable-background:new 0 0 33.1 52.2;" xml:space="preserve">
<style type="text/css">
	.st0{fill:#6E6E6E;}
</style>
<title>Save ON</title>
<g id="Layer_2_1_">
	<g id="Layer_1-2">
		<path class="st0" d="M1.6,49.2c0.1,1,1.1,1.6,2.5,1.6s2.2-0.7,2.2-1.6s-0.6-1.3-2-1.6L3,47.3c-1.9-0.4-2.7-1.3-2.7-2.8
			c0-1.8,1.5-3,3.7-3c2.1,0,3.6,1.2,3.7,3H6.2C6,43.4,5,42.8,4,42.9c-1.3,0-2.1,0.6-2.1,1.5c0,0.7,0.5,1.2,1.9,1.5l1.1,0.3
			c2.1,0.5,3,1.3,3,2.9c0,2-1.5,3.2-4,3.2s-3.9-1.2-4-3H1.6z"/>
		<path class="st0" d="M9.3,49.8c0-1.4,1-2.2,2.9-2.3l2.1-0.1v-0.7c0-0.8-0.5-1.3-1.6-1.3c-0.9,0-1.4,0.3-1.6,0.9H9.6
			c0.2-1.3,1.4-2.2,3.2-2.2c1.9,0,3,1,3,2.6V52h-1.4v-1.1h-0.1c-0.5,0.8-1.4,1.3-2.3,1.2c-1.3,0.1-2.4-0.8-2.6-2.1
			C9.3,49.9,9.3,49.8,9.3,49.8z M14.3,49.1v-0.7l-1.9,0.1c-1.1,0.1-1.6,0.4-1.6,1.1s0.6,1.1,1.4,1.1C13.3,50.9,14.2,50.2,14.3,49.1
			C14.3,49.1,14.3,49.1,14.3,49.1L14.3,49.1z"/>
		<path class="st0" d="M21.5,52h-1.6L17,44.2h1.6l1.9,6.1h0.1l1.9-6.1h1.6L21.5,52z"/>
		<path class="st0" d="M32,49.9c-0.4,1.5-1.8,2.4-3.4,2.2c-2.2,0-3.6-1.5-3.6-4s1.4-4,3.6-4s3.5,1.5,3.5,3.9v0.5h-5.5v0.1
			c-0.1,1.1,0.7,2.1,1.8,2.2c0.1,0,0.2,0,0.3,0c0.8,0.1,1.5-0.3,1.9-0.9L32,49.9z M26.6,47.4h3.9c0.1-1-0.7-1.9-1.7-2
			c-0.1,0-0.1,0-0.2,0C27.5,45.4,26.6,46.3,26.6,47.4L26.6,47.4z"/>
		<path class="st0" d="M16.7,37.8L0.4,28.3V9.4L16.7,0l16.4,9.4v18.9L16.7,37.8z M1.7,27.6l15,8.7l15-8.7V10.2l-15-8.7l-15,8.7
			L1.7,27.6z"/>
		<g id="Icon_Plus">
			<polygon class="st0" points="17.5,18 17.5,11.5 15.8,11.5 15.8,18 9.3,18 9.3,19.7 15.8,19.7 15.8,26.3 17.5,26.3 17.5,19.7 
				24,19.7 24,18 			"/>
		</g>
	</g>
</g>
</svg>
