<?xml version="1.0" encoding="utf-8"?>
<!-- Generator: Adobe Illustrator 22.1.0, SVG Export Plug-In . SVG Version: 6.00 Build 0)  -->
<svg version="1.1" id="Layer_1" xmlns="http://www.w3.org/2000/svg" xmlns:xlink="http://www.w3.org/1999/xlink" x="0px" y="0px"
	 viewBox="0 0 33.1 52.2" style="enable-background:new 0 0 33.1 52.2;" xml:space="preserve">
<style type="text/css">
	.st0{fill:#FFFFFF;}
</style>
<title>Save OFF</title>
<g id="Layer_2_1_">
	<g id="Layer_1-2">
		<path class="st0" d="M1.4,49.4c0.1,1,1.1,1.6,2.5,1.6s2.2-0.7,2.2-1.6s-0.6-1.3-2-1.6l-1.3-0.3c-1.9-0.4-2.7-1.3-2.7-2.8
			c0-1.8,1.5-3,3.7-3c2.1,0,3.6,1.2,3.7,3H6c-0.2-1-1.1-1.7-2.2-1.6c-1.3,0-2.1,0.6-2.1,1.5c0,0.7,0.5,1.2,1.9,1.5l1.1,0.3
			c2.1,0.5,3,1.3,3,2.9c0,2-1.5,3.2-4,3.2s-3.9-1.2-4-3H1.4z"/>
		<path class="st0" d="M9.1,49.9c0-1.4,1-2.2,2.9-2.3l2.1-0.1v-0.7c0-0.8-0.5-1.3-1.6-1.3c-0.9,0-1.4,0.3-1.6,0.9H9.4
			c0.2-1.3,1.4-2.2,3.2-2.2c1.9,0,3,1,3,2.6v5.3h-1.4V51H14c-0.5,0.8-1.4,1.3-2.3,1.2c-1.3,0.1-2.4-0.8-2.6-2.1
			C9.1,50.1,9.1,50,9.1,49.9z M14.1,49.3v-0.7l-1.9,0.1c-1.1,0.1-1.6,0.4-1.6,1.1s0.6,1.1,1.4,1.1C13.1,51.1,14,50.3,14.1,49.3
			C14.1,49.3,14.1,49.3,14.1,49.3L14.1,49.3z"/>
		<path class="st0" d="M21.3,52.2h-1.6l-2.8-7.8h1.6l1.9,6.1h0.1l1.9-6.1h1.6L21.3,52.2z"/>
		<path class="st0" d="M31.8,50c-0.4,1.5-1.8,2.4-3.4,2.2c-2.2,0-3.6-1.5-3.6-4s1.4-4,3.6-4s3.5,1.5,3.5,3.9v0.5h-5.5v0.1
			c-0.1,1.1,0.7,2.1,1.8,2.2c0.1,0,0.2,0,0.3,0c0.8,0.1,1.5-0.3,1.9-0.9L31.8,50z M26.5,47.5h3.9c0.1-1-0.7-1.9-1.7-2
			c-0.1,0-0.1,0-0.2,0C27.4,45.6,26.5,46.4,26.5,47.5L26.5,47.5z"/>
		<path class="st0" d="M16.6,37.9L0.2,28.5V9.6l16.3-9.4l16.3,9.4v18.9L16.6,37.9z M1.5,27.7l15,8.7l15-8.7V10.4l-15-8.7l-15,8.7
			L1.5,27.7z"/>
		<g id="Icon_Plus">
			<polygon class="st0" points="17.3,18.2 17.3,11.7 15.7,11.7 15.7,18.2 9.1,18.2 9.1,19.9 15.7,19.9 15.7,26.4 17.3,26.4 
				17.3,19.9 23.9,19.9 23.9,18.2 			"/>
		</g>
	</g>
</g>
</svg>
