<svg width="21" height="20" viewBox="0 0 21 20" fill="none" xmlns="http://www.w3.org/2000/svg">
<path fill-rule="evenodd" clip-rule="evenodd" d="M11.8441 0.410931C10.9027 -0.136977 9.73251 -0.136977 8.7912 0.410931L8.69601 0.244349L8.7912 0.410933L2.84693 3.87078C1.90382 4.41971 1.31763 5.4439 1.31763 6.54284V13.4572C1.31763 14.5561 1.90382 15.5803 2.84693 16.1292L8.7912 19.5891L8.69018 19.7659L8.79121 19.5891C9.73232 20.1369 10.9026 20.1371 11.8441 19.5891L17.7883 16.1292C18.7314 15.5802 19.3176 14.5561 19.3176 13.4571V6.54284C19.3176 5.4439 18.7314 4.41971 17.7883 3.87078L11.8441 0.410933L11.9451 0.234151L11.8441 0.410931ZM9.37834 1.43876C9.95805 1.1014 10.6773 1.10144 11.257 1.43876L11.257 1.43877L17.2012 4.89862L17.2012 4.89862C17.7819 5.23657 18.1423 5.86628 18.1423 6.54284V13.4571C18.1423 14.1337 17.7819 14.7634 17.2012 15.1013L11.2569 18.5612L11.1604 18.3923L11.2569 18.5612C10.6773 18.8985 9.95792 18.8985 9.3783 18.5612L9.4748 18.3923L9.37829 18.5612L3.43406 15.1014C2.85335 14.7634 2.49298 14.1337 2.49298 13.4571V6.54284C2.49298 5.86627 2.85335 5.2366 3.43406 4.89862L9.37833 1.43877L9.37834 1.43876ZM10.8176 6.5C10.8176 6.22386 10.5938 6 10.3176 6C10.0415 6 9.81763 6.22386 9.81763 6.5V9.5H6.81763C6.54148 9.5 6.31763 9.72386 6.31763 10C6.31763 10.2761 6.54148 10.5 6.81763 10.5H9.81763V13.5C9.81763 13.7761 10.0415 14 10.3176 14C10.5938 14 10.8176 13.7761 10.8176 13.5V10.5H13.8176C14.0938 10.5 14.3176 10.2761 14.3176 10C14.3176 9.72386 14.0938 9.5 13.8176 9.5H10.8176V6.5Z" fill="url(#paint0_linear)"/>
<defs>
<linearGradient id="paint0_linear" x1="10.3176" y1="0" x2="10.3176" y2="20" gradientUnits="userSpaceOnUse">
<stop stop-color="#FFE955"/>
<stop offset="1" stop-color="#EEBA00"/>
</linearGradient>
</defs>
</svg>
