<svg xmlns="http://www.w3.org/2000/svg" viewBox="0 0 39.09 52.83"><defs><style>.cls-1{fill:#fff;}</style></defs><title>Share OFF</title><g id="Layer_2" data-name="Layer 2"><g id="Layer_1-2" data-name="Layer 1"><path class="cls-1" d="M1.58,49.82c.13,1,1.09,1.59,2.46,1.59s2.22-.66,2.22-1.57-.6-1.25-2-1.57L3,48c-1.86-.43-2.7-1.33-2.7-2.84,0-1.83,1.49-3,3.73-3,2.08,0,3.61,1.21,3.7,2.94H6.16A2,2,0,0,0,4,43.48c-1.26,0-2.1.6-2.1,1.53,0,.73.54,1.15,1.88,1.46l1.13.28c2.11.49,3,1.34,3,2.89,0,2-1.52,3.19-3.95,3.19S.11,51.66,0,49.82Z"/><path class="cls-1" d="M9.83,41.81h1.52v4.27h.12a2.37,2.37,0,0,1,2.36-1.39c1.65,0,2.66,1.05,2.66,2.89v5H15V48c0-1.24-.58-1.87-1.66-1.87a1.81,1.81,0,0,0-2,2v4.52H9.83Z"/><path class="cls-1" d="M18.18,50.39c0-1.39,1-2.2,2.88-2.31L23.15,48v-.67c0-.82-.54-1.28-1.58-1.28-.86,0-1.45.31-1.62.86H18.47c.16-1.33,1.41-2.18,3.17-2.18,1.94,0,3,1,3,2.6v5.29H23.2V51.49h-.12a2.59,2.59,0,0,1-2.32,1.22A2.34,2.34,0,0,1,18.18,50.39Zm5-.66v-.65l-1.89.12c-1.06.07-1.55.44-1.55,1.12s.61,1.1,1.44,1.1A1.82,1.82,0,0,0,23.15,49.73Z"/><path class="cls-1" d="M26.83,44.83H28.3V46h.11a2.11,2.11,0,0,1,2.1-1.31,3.51,3.51,0,0,1,.68.06v1.51a4.53,4.53,0,0,0-.86-.09,1.81,1.81,0,0,0-2,1.82v4.57H26.83Z"/><path class="cls-1" d="M39,50.49a3.15,3.15,0,0,1-3.36,2.24c-2.22,0-3.58-1.52-3.58-4s1.39-4,3.57-4,3.46,1.47,3.46,3.9v.53H33.62v.09a2,2,0,0,0,2.06,2.22,1.85,1.85,0,0,0,1.84-.94ZM33.62,48h3.91a1.86,1.86,0,0,0-1.9-2A2,2,0,0,0,33.62,48Z"/><path class="cls-1" d="M30.28,9.85H25.85a.79.79,0,0,0,0,1.57h4.43a1.14,1.14,0,0,1,1.14,1.14V33.87A1.14,1.14,0,0,1,30.28,35H9a1.14,1.14,0,0,1-1.14-1.14h0V12.56A1.14,1.14,0,0,1,9,11.42h4.7a.79.79,0,1,0,0-1.57H9a2.71,2.71,0,0,0-2.7,2.7V33.87A2.71,2.71,0,0,0,9,36.59H30.28a2.7,2.7,0,0,0,2.65-2.72V12.56A2.71,2.71,0,0,0,30.28,9.85Z"/><path class="cls-1" d="M14.75,6.75l4.08-4.12V25.09a.79.79,0,0,0,1.57,0V2.63l4.08,4.08a.78.78,0,0,0,1.11-1.06L20.17.23a.78.78,0,0,0-1.1,0h0L13.65,5.65a.78.78,0,1,0,1.1,1.1Z"/></g></g></svg>