<svg xmlns="http://www.w3.org/2000/svg" viewBox="0 0 39.09 53.99"><defs><style>.cls-1{fill:#6e6e6e;}</style></defs><title>Asset 4</title><g id="Layer_2" data-name="Layer 2"><g id="Layer_1-2" data-name="Layer 1"><path class="cls-1" d="M1.58,51c.13,1,1.09,1.59,2.46,1.59S6.26,51.91,6.26,51s-.6-1.25-2-1.57L3,49.11c-1.86-.44-2.7-1.33-2.7-2.84,0-1.83,1.49-3,3.73-3,2.08,0,3.61,1.21,3.7,2.94H6.16A2,2,0,0,0,4,44.63c-1.26,0-2.1.61-2.1,1.53,0,.74.54,1.16,1.88,1.47l1.13.28c2.11.49,3,1.34,3,2.88,0,2-1.52,3.2-3.95,3.2S.11,52.81,0,51Z"/><path class="cls-1" d="M9.83,43h1.52v4.27h.12a2.37,2.37,0,0,1,2.36-1.39c1.65,0,2.66,1,2.66,2.89v5H15V49.12c0-1.24-.58-1.87-1.66-1.87a1.81,1.81,0,0,0-2,2v4.53H9.83Z"/><path class="cls-1" d="M18.18,51.55c0-1.4,1-2.2,2.88-2.31l2.09-.12v-.67c0-.82-.54-1.28-1.58-1.28-.86,0-1.45.31-1.62.86H18.47c.16-1.33,1.41-2.19,3.17-2.19,1.94,0,3,1,3,2.61v5.29H23.2V52.65h-.12a2.59,2.59,0,0,1-2.32,1.22A2.34,2.34,0,0,1,18.18,51.55Zm5-.66v-.65l-1.89.12c-1.06.07-1.55.43-1.55,1.12s.61,1.1,1.44,1.1A1.82,1.82,0,0,0,23.15,50.89Z"/><path class="cls-1" d="M26.83,46H28.3v1.19h.11a2.11,2.11,0,0,1,2.1-1.31,3.51,3.51,0,0,1,.68.06v1.51a3.76,3.76,0,0,0-.86-.1,1.82,1.82,0,0,0-2,1.83v4.57H26.83Z"/><path class="cls-1" d="M39,51.65a3.16,3.16,0,0,1-3.36,2.24c-2.22,0-3.58-1.52-3.58-4s1.39-4,3.57-4,3.46,1.48,3.46,3.91v.53H33.62v.09a2,2,0,0,0,2.06,2.22,1.85,1.85,0,0,0,1.84-.94Zm-5.38-2.5h3.91a1.85,1.85,0,0,0-1.9-2A2,2,0,0,0,33.62,49.15Z"/><polygon class="cls-1" points="13.8 17.81 24.7 11.46 29.08 13.99 35.13 10.49 35.13 3.5 29.08 0 23.02 3.5 23.02 8.81 12.13 15.16 7.75 12.63 1.69 16.13 1.69 23.12 7.75 26.62 12.06 24.13 23.02 30.53 23.02 35.91 29.08 39.41 35.13 35.91 35.13 28.91 29.08 25.42 24.77 27.9 13.8 21.52 13.8 17.81"/></g></g></svg>