<?xml version="1.0" encoding="utf-8"?>
<!-- Generator: Adobe Illustrator 20.0.0, SVG Export Plug-In . SVG Version: 6.00 Build 0)  -->
<svg version="1.1" id="Layer_1" xmlns="http://www.w3.org/2000/svg" xmlns:xlink="http://www.w3.org/1999/xlink" x="0px" y="0px"
	 viewBox="0 0 78.7 100" style="enable-background:new 0 0 78.7 100;" xml:space="preserve">
<style type="text/css">
	.st0{fill:#FFFFFF;}
</style>
<g>
	<polygon class="st0" points="71.8,6.7 46.6,6.7 46.6,0 32.2,0 32.2,6.7 6.9,6.7 6.9,15.8 71.8,15.8 	"/>
	<path class="st0" d="M71.8,20.7L71.8,20.7h-65l0,0H0v9.1h7.5l4.4,70.3h55l4.4-70.3h7.5v-9.1H71.8z M20.4,90.9l-3.8-61h8.1l1.3,61
		H20.4z M42.1,90.9h-5.5l-1.3-61h8.1L42.1,90.9z M58.3,90.9h-5.5l1.3-61h8.1L58.3,90.9z"/>
</g>
</svg>
