<svg xmlns="http://www.w3.org/2000/svg" viewBox="0 0 48 39.17"><defs><style>.cls-1{fill:#fff;}</style></defs><title>Asset 1</title><g id="Layer_2" data-name="Layer 2"><g id="Layer_1-2" data-name="Layer 1"><path class="cls-1" d="M23.57,12.16A28.33,28.33,0,0,1,3.17,1.83,9.79,9.79,0,0,0,2.09,9a10,10,0,0,0,4,6,9.57,9.57,0,0,1-4.28-1.16,9.64,9.64,0,0,0,2.17,6.3,10.2,10.2,0,0,0,5.58,3.54,15.52,15.52,0,0,1-2.1.29c-.71,0-1.42,0-2.11,0A9.06,9.06,0,0,0,8,28a9.88,9.88,0,0,0,6.48,2.59A20.28,20.28,0,0,1,0,34.79a27.64,27.64,0,0,0,2.55,1.46A28.44,28.44,0,0,0,20.5,38.67a25,25,0,0,0,10.2-4.14c8.14-5.78,12.16-13.77,12.41-23.7,0-.73,0-1.34.79-1.7a2.93,2.93,0,0,0,.58-.48,20.26,20.26,0,0,0,3.53-4A18,18,0,0,1,42.55,6.1,10.29,10.29,0,0,0,46.67.74L46.23,1A20.44,20.44,0,0,1,41,3a1,1,0,0,1-1-.29,9.87,9.87,0,0,0-16.39,9.46Z"/><path class="cls-1" d="M23.57,12.16A9.87,9.87,0,0,1,40,2.7,1,1,0,0,0,41,3a20.44,20.44,0,0,0,5.24-2l.45-.22A10.29,10.29,0,0,1,42.55,6.1,18,18,0,0,0,48,4.65a20.26,20.26,0,0,1-3.53,4,2.93,2.93,0,0,1-.58.48c-.74.36-.77,1-.79,1.7-.25,9.93-4.27,17.92-12.41,23.7a25,25,0,0,1-10.2,4.14A28.44,28.44,0,0,1,2.55,36.25,27.64,27.64,0,0,1,0,34.79a20.28,20.28,0,0,0,14.46-4.16A9.88,9.88,0,0,1,8,28a9.06,9.06,0,0,1-2.67-4.13c.7,0,1.41,0,2.11,0a15.52,15.52,0,0,0,2.1-.29,10.2,10.2,0,0,1-5.58-3.54,9.64,9.64,0,0,1-2.17-6.3,9.57,9.57,0,0,0,4.28,1.16,10,10,0,0,1-4-6A9.79,9.79,0,0,1,3.17,1.83,28.33,28.33,0,0,0,23.57,12.16Z"/></g></g></svg>