<svg xmlns:svg="http://www.w3.org/2000/svg" xmlns="http://www.w3.org/2000/svg" version="1.1" width="533.3" height="533.3" viewBox="0 0 533.3 533.3" xml:space="preserve"><style>.s0{fill:#2daae1;stroke:#2daae1;}.s1{fill:none;}</style><rect width="432.8" height="361.6" x="50.8" y="87" fill="#fff"/><path d="M444.4 0H88.9C40 0 0 40 0 88.9v355.5c0 48.9 40 88.9 88.9 88.9h355.6c48.9 0 88.9-40 88.9-88.9V88.9C533.3 40 493.3 0 444.4 0zm-8 178c0.2 3.8 0.3 7.7 0.3 11.5 0 117.8-88.1 253.7-249.3 253.7-49.5 0-95.5-14.8-134.3-40.1 6.9 0.8 13.8 1.2 20.9 1.2 41.1 0 78.8-14.3 108.8-38.2-38.3-0.7-70.7-26.5-81.9-61.9 5.4 1 10.8 1.6 16.5 1.6 8 0 15.7-1.1 23.1-3.1-40.1-8.2-70.3-44.2-70.3-87.4 0-0.4 0-0.7 0-1.1 11.8 6.7 25.3 10.7 39.7 11.2-23.5-16-39-43.3-39-74.2 0-16.3 4.3-31.7 11.9-44.8 43.2 53.9 107.8 89.4 180.6 93.2-1.5-6.5-2.3-13.3-2.3-20.3 0-49.2 39.2-89.2 87.6-89.2 25.2 0 48 10.8 64 28.2 20-4 38.7-11.4 55.6-21.6-6.5 20.8-20.4 38.3-38.5 49.3 17.7-2.2 34.6-6.9 50.3-14-11.7 17.9-26.6 33.6-43.7 46.2z" class="s0"/><path d="M77 531.9C39.6 526.2 9.9 498.1 2.5 461.2 0.9 453.1 0.7 433.1 1 262.4L1.3 72.5 4 64.6C14.2 34.2 35.2 13.4 65.2 4l8.5-2.6 193.2 0 193.2 0 8.5 2.7c16.5 5.2 28.5 12.8 40.2 25.3 9.6 10.3 16.3 21.9 20.5 35.3l3.2 10.2 0 190.4c0 212.7 0.5 198-7.9 215.7-9.8 20.5-23.7 34.3-43.9 43.6-18.3 8.4-1.3 7.8-210.4 8-103.2 0.1-190.1-0.2-193.2-0.7l0 0zM227.3 440.9c51.1-7.8 97.2-30.8 133-66.4 47.2-47 76.6-116.9 76.6-182l0-13.9 7.3-5.9c4-3.3 11.8-10.7 17.2-16.4 9.6-10.2 20.5-24.3 18.7-24.3-0.5 0-6.5 2-13.3 4.4-12.7 4.5-28.9 8.6-31.1 7.8-0.7-0.2 1.4-2.4 4.5-4.8 10.8-8.2 25.2-29.2 27.8-40.5 0.7-3.1 0.7-3.1-11.4 3.1-10.9 5.5-30 12.6-39.9 14.6-3.3 0.7-4.3 0.3-8.5-3.6-16.5-15.1-36.7-22.9-59.6-22.9-34.4 0-63.2 18-79 49.4-6.1 12.1-8.5 22.9-8.5 38.2 0 7.5 0.3 15.2 0.7 17.2l0.8 3.7-4.6 0c-14.1 0-49.5-7.8-68.2-15.1-36.2-14-61.2-30.6-90.1-59.7l-17.7-17.9-2.4 5.4c-6.5 14.4-9 25.7-9 40.7 0 25.4 9.9 47.9 28.7 65.5 6.4 6 7.1 7 4.8 7-4.4 0-19.9-4.3-26.5-7.3-3.4-1.6-6.7-2.8-7.3-2.8-1.5 0-0.3 13.9 2.1 23.7 4 16.5 16.4 36.3 29.4 46.9 7.7 6.3 17.8 11.9 27.5 15.4l7.3 2.6-3.9 0.9c-5 1.1-25.6 1.3-29.7 0.3-1.7-0.4-3.1-0.5-3.1-0.3 0 0.3 1.3 3.8 2.9 7.7 8.4 20.6 26 38.8 46.2 47.7 6.5 2.8 15.9 5.4 26.4 7.3l4.9 0.9-10.7 7.1c-11.6 7.7-29.8 16.6-41.5 20.4-20.1 6.5-46.1 9.9-65.3 8.5-5.7-0.4-10.5-0.5-10.5-0.2 0 0.9 14 9 25.4 14.7 25.3 12.6 51.1 20.3 80.7 24.1 15.5 2 51.6 1.3 68.4-1.2l0 0zM77 531.9C39.6 526.2 9.9 498.1 2.5 461.2 0.9 453.1 0.7 433.1 1 262.4L1.3 72.5 4 64.6C14.2 34.2 35.2 13.4 65.2 4l8.5-2.6 193.2 0 193.2 0 8.5 2.7c16.5 5.2 28.5 12.8 40.2 25.3 9.6 10.3 16.3 21.9 20.5 35.3l3.2 10.2 0 190.4c0 212.7 0.5 198-7.9 215.7-9.8 20.5-23.7 34.3-43.9 43.6-18.3 8.4-1.3 7.8-210.4 8-103.2 0.1-190.1-0.2-193.2-0.7l0 0zM227.3 440.9c51.1-7.8 97.2-30.8 133-66.4 47.2-47 76.6-116.9 76.6-182l0-13.9 7.3-5.9c4-3.3 11.8-10.7 17.2-16.4 9.6-10.2 20.5-24.3 18.7-24.3-0.5 0-6.5 2-13.3 4.4-12.7 4.5-28.9 8.6-31.1 7.8-0.7-0.2 1.4-2.4 4.5-4.8 10.8-8.2 25.2-29.2 27.8-40.5 0.7-3.1 0.7-3.1-11.4 3.1-10.9 5.5-30 12.6-39.9 14.6-3.3 0.7-4.3 0.3-8.5-3.6-16.5-15.1-36.7-22.9-59.6-22.9-34.4 0-63.2 18-79 49.4-6.1 12.1-8.5 22.9-8.5 38.2 0 7.5 0.3 15.2 0.7 17.2l0.8 3.7-4.6 0c-14.1 0-49.5-7.8-68.2-15.1-36.2-14-61.2-30.6-90.1-59.7l-17.7-17.9-2.4 5.4c-6.5 14.4-9 25.7-9 40.7 0 25.4 9.9 47.9 28.7 65.5 6.4 6 7.1 7 4.8 7-4.4 0-19.9-4.3-26.5-7.3-3.4-1.6-6.7-2.8-7.3-2.8-1.5 0-0.3 13.9 2.1 23.7 4 16.5 16.4 36.3 29.4 46.9 7.7 6.3 17.8 11.9 27.5 15.4l7.3 2.6-3.9 0.9c-5 1.1-25.6 1.3-29.7 0.3-1.7-0.4-3.1-0.5-3.1-0.3 0 0.3 1.3 3.8 2.9 7.7 8.4 20.6 26 38.8 46.2 47.7 6.5 2.8 15.9 5.4 26.4 7.3l4.9 0.9-10.7 7.1c-11.6 7.7-29.8 16.6-41.5 20.4-20.1 6.5-46.1 9.9-65.3 8.5-5.7-0.4-10.5-0.5-10.5-0.2 0 0.9 14 9 25.4 14.7 25.3 12.6 51.1 20.3 80.7 24.1 15.5 2 51.6 1.3 68.4-1.2l0 0zM77 531.9C39.6 526.2 9.9 498.1 2.5 461.2 0.9 453.1 0.7 433.1 1 262.4L1.3 72.5 4 64.6C14.2 34.2 35.2 13.4 65.2 4l8.5-2.6 193.2 0 193.2 0 8.5 2.7c16.5 5.2 28.5 12.8 40.2 25.3 9.6 10.3 16.3 21.9 20.5 35.3l3.2 10.2 0 190.4c0 212.7 0.5 198-7.9 215.7-9.8 20.5-23.7 34.3-43.9 43.6-18.3 8.4-1.3 7.8-210.4 8-103.2 0.1-190.1-0.2-193.2-0.7l0 0zM227.3 440.9c51.1-7.8 97.2-30.8 133-66.4 47.2-47 76.6-116.9 76.6-182l0-13.9 7.3-5.9c4-3.3 11.8-10.7 17.2-16.4 9.6-10.2 20.5-24.3 18.7-24.3-0.5 0-6.5 2-13.3 4.4-12.7 4.5-28.9 8.6-31.1 7.8-0.7-0.2 1.4-2.4 4.5-4.8 10.8-8.2 25.2-29.2 27.8-40.5 0.7-3.1 0.7-3.1-11.4 3.1-10.9 5.5-30 12.6-39.9 14.6-3.3 0.7-4.3 0.3-8.5-3.6-16.5-15.1-36.7-22.9-59.6-22.9-34.4 0-63.2 18-79 49.4-6.1 12.1-8.5 22.9-8.5 38.2 0 7.5 0.3 15.2 0.7 17.2l0.8 3.7-4.6 0c-14.1 0-49.5-7.8-68.2-15.1-36.2-14-61.2-30.6-90.1-59.7l-17.7-17.9-2.4 5.4c-6.5 14.4-9 25.7-9 40.7 0 25.4 9.9 47.9 28.7 65.5 6.4 6 7.1 7 4.8 7-4.4 0-19.9-4.3-26.5-7.3-3.4-1.6-6.7-2.8-7.3-2.8-1.5 0-0.3 13.9 2.1 23.7 4 16.5 16.4 36.3 29.4 46.9 7.7 6.3 17.8 11.9 27.5 15.4l7.3 2.6-3.9 0.9c-5 1.1-25.6 1.3-29.7 0.3-1.7-0.4-3.1-0.5-3.1-0.3 0 0.3 1.3 3.8 2.9 7.7 8.4 20.6 26 38.8 46.2 47.7 6.5 2.8 15.9 5.4 26.4 7.3l4.9 0.9-10.7 7.1c-11.6 7.7-29.8 16.6-41.5 20.4-20.1 6.5-46.1 9.9-65.3 8.5-5.7-0.4-10.5-0.5-10.5-0.2 0 0.9 14 9 25.4 14.7 25.3 12.6 51.1 20.3 80.7 24.1 15.5 2 51.6 1.3 68.4-1.2l0 0z" fill="none"/><path d="M77 531.9C39.6 526.2 9.9 498.1 2.5 461.2 0.9 453.1 0.7 433.1 1 262.4L1.3 72.5 4 64.6C14.2 34.2 35.2 13.4 65.2 4l8.5-2.6 193.2 0 193.2 0 8.5 2.7c16.5 5.2 28.5 12.8 40.2 25.3 9.6 10.3 16.3 21.9 20.5 35.3l3.2 10.2 0 190.4c0 212.7 0.5 198-7.9 215.7-9.8 20.5-23.7 34.3-43.9 43.6-18.3 8.4-1.3 7.8-210.4 8-103.2 0.1-190.1-0.2-193.2-0.7l0 0zM227.3 440.9c51.1-7.8 97.2-30.8 133-66.4 47.2-47 76.6-116.9 76.6-182l0-13.9 7.3-5.9c4-3.3 11.8-10.7 17.2-16.4 9.6-10.2 20.5-24.3 18.7-24.3-0.5 0-6.5 2-13.3 4.4-12.7 4.5-28.9 8.6-31.1 7.8-0.7-0.2 1.4-2.4 4.5-4.8 10.8-8.2 25.2-29.2 27.8-40.5 0.7-3.1 0.7-3.1-11.4 3.1-10.9 5.5-30 12.6-39.9 14.6-3.3 0.7-4.3 0.3-8.5-3.6-16.5-15.1-36.7-22.9-59.6-22.9-34.4 0-63.2 18-79 49.4-6.1 12.1-8.5 22.9-8.5 38.2 0 7.5 0.3 15.2 0.7 17.2l0.8 3.7-4.6 0c-14.1 0-49.5-7.8-68.2-15.1-36.2-14-61.2-30.6-90.1-59.7l-17.7-17.9-2.4 5.4c-6.5 14.4-9 25.7-9 40.7 0 25.4 9.9 47.9 28.7 65.5 6.4 6 7.1 7 4.8 7-4.4 0-19.9-4.3-26.5-7.3-3.4-1.6-6.7-2.8-7.3-2.8-1.5 0-0.3 13.9 2.1 23.7 4 16.5 16.4 36.3 29.4 46.9 7.7 6.3 17.8 11.9 27.5 15.4l7.3 2.6-3.9 0.9c-5 1.1-25.6 1.3-29.7 0.3-1.7-0.4-3.1-0.5-3.1-0.3 0 0.3 1.3 3.8 2.9 7.7 8.4 20.6 26 38.8 46.2 47.7 6.5 2.8 15.9 5.4 26.4 7.3l4.9 0.9-10.7 7.1c-11.6 7.7-29.8 16.6-41.5 20.4-20.1 6.5-46.1 9.9-65.3 8.5-5.7-0.4-10.5-0.5-10.5-0.2 0 0.9 14 9 25.4 14.7 25.3 12.6 51.1 20.3 80.7 24.1 15.5 2 51.6 1.3 68.4-1.2l0 0z" class="s0"/></svg>